<svg width="702" height="709" viewBox="0 0 702 709" fill="none" xmlns="http://www.w3.org/2000/svg">
<g clip-path="url(#clip0_148_31)">
<rect width="701.033" height="708.974" fill="#04030E"/>
<g clip-path="url(#clip1_148_31)">
<g clip-path="url(#clip2_148_31)">
<g clip-path="url(#clip3_148_31)">
<g clip-path="url(#clip4_148_31)">
<g clip-path="url(#clip5_148_31)">
<g clip-path="url(#clip6_148_31)">
<g clip-path="url(#clip7_148_31)">
<g clip-path="url(#clip8_148_31)">
<path d="M19.8007 287.708V395.207H0.0656738V287.708H19.8007ZM57.859 297.414C57.859 299.238 57.5158 300.934 56.8296 302.502C56.1237 304.091 55.1727 305.473 53.9767 306.649C52.7806 307.806 51.3787 308.738 49.7709 309.443C48.1826 310.13 46.4768 310.473 44.6533 310.473C42.8298 310.473 41.1141 310.13 39.5063 309.443C37.8985 308.738 36.5161 307.806 35.3593 306.649C34.1828 305.473 33.2417 304.091 32.5358 302.502C31.8495 300.934 31.5064 299.238 31.5064 297.414C31.5064 295.63 31.8495 293.944 32.5358 292.355C33.2417 290.748 34.1828 289.356 35.3593 288.179C36.5161 287.003 37.8985 286.071 39.5063 285.385C41.1141 284.679 42.8298 284.326 44.6533 284.326C46.4768 284.326 48.1826 284.679 49.7709 285.385C51.3787 286.071 52.7806 287.003 53.9767 288.179C55.1727 289.356 56.1237 290.748 56.8296 292.355C57.5158 293.944 57.859 295.63 57.859 297.414ZM54.4767 318.296V395.207H34.7416V318.296H54.4767ZM124.123 356.06C124.123 353.394 123.613 350.806 122.593 348.296C121.554 345.766 120.152 343.531 118.388 341.59C116.623 339.669 114.554 338.12 112.182 336.943C109.809 335.767 107.28 335.178 104.594 335.178C101.907 335.178 99.3878 335.629 97.0349 336.531C94.6624 337.453 92.6036 338.796 90.8585 340.561C89.0938 342.325 87.7115 344.512 86.7115 347.119C85.7115 349.747 85.2115 352.727 85.2115 356.06C85.2115 359.276 85.7115 362.168 86.7115 364.737C87.7115 367.286 89.0938 369.472 90.8585 371.296C92.6036 373.119 94.6624 374.521 97.0349 375.501C99.3878 376.482 101.907 376.972 104.594 376.972C107.28 376.972 109.809 376.384 112.182 375.207C114.554 374.031 116.623 372.472 118.388 370.531C120.152 368.59 121.554 366.364 122.593 363.854C123.613 361.345 124.123 358.747 124.123 356.06ZM143.887 318.443V385.501C143.887 390.913 142.858 395.991 140.799 400.736C138.74 405.481 135.926 409.618 132.358 413.148C128.789 416.697 124.623 419.501 119.858 421.56C115.093 423.618 110.005 424.648 104.594 424.648L94.7702 424.501V404.913L104.447 405.03C107.505 405.03 110.113 404.638 112.27 403.854C114.427 403.07 116.25 401.991 117.74 400.619C119.231 399.266 120.417 397.697 121.299 395.913C122.182 394.148 122.887 392.285 123.417 390.325C122.652 391.56 121.544 392.58 120.093 393.383C118.662 394.168 117.074 394.815 115.329 395.325C113.584 395.815 111.77 396.158 109.888 396.354C107.986 396.55 106.221 396.648 104.594 396.648C99.1819 396.648 94.0937 395.717 89.3291 393.854C84.5645 391.972 80.3979 389.295 76.8293 385.825C73.2803 382.354 70.4764 378.109 68.4176 373.09C66.3588 368.07 65.3294 362.394 65.3294 356.06C65.3294 350.276 66.3588 344.894 68.4176 339.914C70.4764 334.933 73.2803 330.629 76.8293 327.002C80.3979 323.355 84.5645 320.502 89.3291 318.443C94.0937 316.385 99.1819 315.355 104.594 315.355C107.084 315.355 109.554 315.669 112.005 316.296C114.437 316.924 116.799 317.786 119.093 318.885C121.387 319.983 123.584 321.277 125.682 322.767C127.76 324.237 129.711 325.835 131.534 327.561L139.123 318.443H143.887ZM178.416 351.266V395.207H158.799V287.708H178.416V321.679C180.749 319.914 183.161 318.659 185.651 317.914C188.141 317.169 190.681 316.796 193.269 316.796C198.014 316.796 202.465 317.698 206.622 319.502C210.778 321.286 214.406 323.747 217.504 326.884C220.582 330.022 223.023 333.688 224.827 337.884C226.631 342.061 227.533 346.521 227.533 351.266V395.207H207.769V351.266H207.916C207.916 349.247 207.533 347.345 206.769 345.561C206.004 343.757 204.955 342.188 203.622 340.855C202.269 339.502 200.71 338.443 198.945 337.678C197.181 336.914 195.288 336.531 193.269 336.531C191.21 336.531 189.269 336.914 187.445 337.678C185.622 338.443 184.043 339.502 182.71 340.855C181.377 342.188 180.328 343.757 179.563 345.561C178.798 347.345 178.416 349.247 178.416 351.266ZM293.856 395.207H279.003C274.258 395.207 269.807 394.305 265.65 392.501C261.474 390.717 257.817 388.256 254.68 385.119C251.542 381.982 249.082 378.335 247.297 374.178C245.494 370.001 244.592 365.551 244.592 360.825V337.972H235.062V318.443H244.592V287.708H264.121V318.443H293.856V337.972H264.121V360.825C264.121 362.884 264.503 364.805 265.268 366.59C266.052 368.394 267.111 369.962 268.444 371.296C269.777 372.629 271.356 373.697 273.179 374.501C275.003 375.286 276.944 375.678 279.003 375.678H293.856V395.207ZM381.825 356.06C381.825 362.1 380.796 367.609 378.737 372.59C376.678 377.57 373.874 381.844 370.325 385.413C366.776 388.982 362.619 391.746 357.855 393.707C353.09 395.668 347.982 396.648 342.531 396.648C337.12 396.648 332.032 395.638 327.267 393.619C322.502 391.619 318.345 388.825 314.796 385.236C311.228 381.648 308.414 377.374 306.355 372.413C304.297 367.452 303.267 362.002 303.267 356.06V287.708H322.943V323.62C323.983 322.286 325.257 321.09 326.767 320.032C328.277 318.973 329.904 318.11 331.649 317.443C333.394 316.777 335.208 316.257 337.09 315.885C338.953 315.532 340.767 315.355 342.531 315.355C347.982 315.355 353.09 316.375 357.855 318.414C362.619 320.453 366.776 323.286 370.325 326.914C373.874 330.561 376.678 334.855 378.737 339.796C380.796 344.757 381.825 350.178 381.825 356.06ZM362.061 356.06C362.061 353.1 361.551 350.335 360.531 347.766C359.492 345.217 358.09 343.012 356.325 341.149C354.561 339.267 352.492 337.806 350.119 336.767C347.747 335.708 345.218 335.178 342.531 335.178C339.845 335.178 337.326 335.767 334.973 336.943C332.6 338.12 330.522 339.669 328.737 341.59C326.973 343.531 325.59 345.766 324.59 348.296C323.59 350.806 323.09 353.394 323.09 356.06C323.09 359.041 323.59 361.796 324.59 364.325C325.59 366.874 326.973 369.08 328.737 370.943C330.522 372.805 332.6 374.276 334.973 375.354C337.326 376.433 339.845 376.972 342.531 376.972C345.218 376.972 347.747 376.433 350.119 375.354C352.492 374.276 354.561 372.805 356.325 370.943C358.09 369.08 359.492 366.874 360.531 364.325C361.551 361.796 362.061 359.041 362.061 356.06ZM466.971 356.06C466.971 361.805 465.941 367.158 463.883 372.119C461.824 377.08 459.02 381.364 455.471 384.972C451.942 388.58 447.795 391.432 443.03 393.53C438.265 395.609 433.148 396.648 427.677 396.648C422.285 396.648 417.207 395.609 412.442 393.53C407.678 391.432 403.511 388.58 399.942 384.972C396.374 381.364 393.56 377.08 391.501 372.119C389.443 367.158 388.413 361.805 388.413 356.06C388.413 350.237 389.443 344.835 391.501 339.855C393.56 334.874 396.374 330.571 399.942 326.943C403.511 323.335 407.678 320.502 412.442 318.443C417.207 316.385 422.285 315.355 427.677 315.355C433.148 315.355 438.265 316.326 443.03 318.267C447.795 320.208 451.942 322.963 455.471 326.531C459.02 330.1 461.824 334.384 463.883 339.384C465.941 344.384 466.971 349.943 466.971 356.06ZM447.206 356.06C447.206 352.904 446.697 350.051 445.677 347.502C444.657 344.933 443.255 342.727 441.471 340.884C439.706 339.041 437.638 337.629 435.265 336.649C432.893 335.669 430.363 335.178 427.677 335.178C425.011 335.178 422.491 335.669 420.119 336.649C417.746 337.629 415.687 339.041 413.942 340.884C412.197 342.727 410.825 344.933 409.825 347.502C408.805 350.051 408.295 352.904 408.295 356.06C408.295 359.041 408.805 361.796 409.825 364.325C410.825 366.874 412.197 369.08 413.942 370.943C415.687 372.805 417.746 374.276 420.119 375.354C422.491 376.433 425.011 376.972 427.677 376.972C430.363 376.972 432.893 376.472 435.265 375.472C437.638 374.452 439.706 373.041 441.471 371.237C443.255 369.413 444.657 367.207 445.677 364.619C446.697 362.031 447.206 359.178 447.206 356.06ZM552.264 318.443V395.207H547.528L539.911 384.648C538.048 386.335 536.078 387.903 533.999 389.354C531.901 390.805 529.705 392.07 527.411 393.148C525.117 394.227 522.764 395.079 520.352 395.707C517.941 396.334 515.49 396.648 513 396.648C507.588 396.648 502.5 395.736 497.735 393.913C492.97 392.089 488.804 389.442 485.235 385.972C481.667 382.501 478.853 378.256 476.794 373.237C474.735 368.217 473.706 362.492 473.706 356.06C473.706 350.08 474.735 344.59 476.794 339.59C478.853 334.59 481.667 330.296 485.235 326.708C488.804 323.12 492.97 320.326 497.735 318.326C502.5 316.345 507.588 315.355 513 315.355C515.49 315.355 517.95 315.669 520.382 316.296C522.833 316.924 525.205 317.786 527.499 318.885C529.793 319.983 531.98 321.277 534.058 322.767C536.136 324.237 538.087 325.835 539.911 327.561L547.528 318.443H552.264ZM532.529 356.06C532.529 353.394 532.009 350.806 530.97 348.296C529.95 345.766 528.548 343.531 526.764 341.59C524.999 339.669 522.931 338.12 520.558 336.943C518.186 335.767 515.666 335.178 513 335.178C510.313 335.178 507.784 335.629 505.411 336.531C503.039 337.453 500.98 338.796 499.235 340.561C497.49 342.325 496.117 344.512 495.117 347.119C494.098 349.747 493.588 352.727 493.588 356.06C493.588 359.413 494.098 362.394 495.117 365.001C496.117 367.609 497.49 369.805 499.235 371.59C500.98 373.354 503.039 374.688 505.411 375.59C507.784 376.511 510.313 376.972 513 376.972C515.666 376.972 518.186 376.384 520.558 375.207C522.931 374.031 524.999 372.472 526.764 370.531C528.548 368.59 529.95 366.364 530.97 363.854C532.009 361.345 532.529 358.747 532.529 356.06ZM586.793 352.855V395.207H567.205V318.296H571.94L578.381 327.414C581.557 324.551 585.155 322.335 589.175 320.767C593.194 319.218 597.351 318.443 601.645 318.443H618.969V337.972H601.645C599.587 337.972 597.655 338.355 595.851 339.12C594.028 339.884 592.449 340.943 591.116 342.296C589.763 343.629 588.704 345.208 587.94 347.031C587.175 348.855 586.793 350.796 586.793 352.855ZM700.967 287.708V395.207H696.232L688.615 384.648C686.752 386.335 684.772 387.903 682.674 389.354C680.595 390.805 678.409 392.07 676.115 393.148C673.821 394.227 671.458 395.079 669.027 395.707C666.615 396.334 664.164 396.648 661.674 396.648C656.262 396.648 651.174 395.629 646.409 393.589C641.645 391.55 637.488 388.727 633.939 385.119C630.37 381.511 627.557 377.227 625.498 372.266C623.439 367.305 622.41 361.903 622.41 356.06C622.41 350.276 623.439 344.894 625.498 339.914C627.557 334.933 630.37 330.629 633.939 327.002C637.488 323.355 641.645 320.502 646.409 318.443C651.174 316.385 656.262 315.355 661.674 315.355C663.399 315.355 665.184 315.502 667.027 315.796C668.87 316.071 670.664 316.532 672.409 317.179C674.154 317.826 675.791 318.679 677.321 319.737C678.87 320.796 680.164 322.09 681.203 323.62V287.708H700.967ZM681.203 356.06C681.203 353.394 680.693 350.806 679.674 348.296C678.634 345.766 677.232 343.531 675.468 341.59C673.703 339.669 671.635 338.12 669.262 336.943C666.89 335.767 664.36 335.178 661.674 335.178C658.988 335.178 656.468 335.659 654.115 336.62C651.743 337.58 649.684 338.953 647.939 340.737C646.194 342.541 644.811 344.737 643.792 347.325C642.792 349.894 642.292 352.806 642.292 356.06C642.292 358.884 642.792 361.57 643.792 364.119C644.811 366.649 646.194 368.874 647.939 370.796C649.684 372.717 651.743 374.227 654.115 375.325C656.468 376.423 658.988 376.972 661.674 376.972C664.36 376.972 666.89 376.384 669.262 375.207C671.635 374.031 673.703 372.472 675.468 370.531C677.232 368.59 678.634 366.364 679.674 363.854C680.693 361.345 681.203 358.747 681.203 356.06Z" fill="white"/>
</g>
</g>
</g>
</g>
</g>
</g>
</g>
<path d="M0 267.119V2.86816H701.032V267.119H688.378V15.5219H12.6537V267.119H0ZM0 441.855V706.106H701.032V441.855H688.378V693.452H12.6537V441.855H0Z" fill="white"/>
</g>
</g>
<defs>
<clipPath id="clip0_148_31">
<rect width="701.033" height="708.974" fill="white"/>
</clipPath>
<clipPath id="clip1_148_31">
<rect width="701.033" height="708.974" fill="white"/>
</clipPath>
<clipPath id="clip2_148_31">
<rect width="701.033" height="140.322" fill="white" transform="translate(0 284.326)"/>
</clipPath>
<clipPath id="clip3_148_31">
<rect width="701.033" height="140.322" fill="white" transform="translate(0 284.326)"/>
</clipPath>
<clipPath id="clip4_148_31">
<rect width="701.033" height="140.322" fill="white" transform="translate(0 284.326)"/>
</clipPath>
<clipPath id="clip5_148_31">
<rect width="701.033" height="140.322" fill="white" transform="translate(0 284.326)"/>
</clipPath>
<clipPath id="clip6_148_31">
<rect width="701.033" height="140.322" fill="white" transform="translate(0 284.326)"/>
</clipPath>
<clipPath id="clip7_148_31">
<rect width="701.033" height="140.322" fill="white" transform="translate(0 284.326)"/>
</clipPath>
<clipPath id="clip8_148_31">
<rect width="701.033" height="140.322" fill="white" transform="translate(0 284.326)"/>
</clipPath>
</defs>
</svg>
