<svg width="701" height="704" viewBox="0 0 701 704" fill="none" xmlns="http://www.w3.org/2000/svg">
<g clip-path="url(#clip0_147_19)">
<g clip-path="url(#clip1_147_19)">
<g clip-path="url(#clip2_147_19)">
<g clip-path="url(#clip3_147_19)">
<g clip-path="url(#clip4_147_19)">
<g clip-path="url(#clip5_147_19)">
<g clip-path="url(#clip6_147_19)">
<path d="M19.9027 285.509V393.007H0.167725V285.509H19.9027ZM57.961 295.215C57.961 297.038 57.6179 298.734 56.9316 300.303C56.2257 301.891 55.2748 303.273 54.0787 304.45C52.8827 305.607 51.4807 306.538 49.8729 307.244C48.2847 307.93 46.5788 308.273 44.7553 308.273C42.9318 308.273 41.2162 307.93 39.6083 307.244C38.0005 306.538 36.6182 305.607 35.4613 304.45C34.2849 303.273 33.3437 301.891 32.6378 300.303C31.9516 298.734 31.6084 297.038 31.6084 295.215C31.6084 293.43 31.9516 291.744 32.6378 290.156C33.3437 288.548 34.2849 287.156 35.4613 285.979C36.6182 284.803 38.0005 283.872 39.6083 283.185C41.2162 282.479 42.9318 282.126 44.7553 282.126C46.5788 282.126 48.2847 282.479 49.8729 283.185C51.4807 283.872 52.8827 284.803 54.0787 285.979C55.2748 287.156 56.2257 288.548 56.9316 290.156C57.6179 291.744 57.961 293.43 57.961 295.215ZM54.5787 316.097V393.007H34.8437V316.097H54.5787ZM124.225 353.861C124.225 351.194 123.715 348.606 122.695 346.096C121.656 343.567 120.254 341.332 118.49 339.39C116.725 337.469 114.656 335.92 112.284 334.743C109.911 333.567 107.382 332.979 104.696 332.979C102.009 332.979 99.4898 333.43 97.1369 334.332C94.7644 335.253 92.7056 336.596 90.9605 338.361C89.1959 340.126 87.8135 342.312 86.8135 344.92C85.8136 347.547 85.3136 350.527 85.3136 353.861C85.3136 357.076 85.8136 359.968 86.8135 362.537C87.8135 365.086 89.1959 367.272 90.9605 369.096C92.7056 370.919 94.7644 372.321 97.1369 373.302C99.4898 374.282 102.009 374.772 104.696 374.772C107.382 374.772 109.911 374.184 112.284 373.008C114.656 371.831 116.725 370.272 118.49 368.331C120.254 366.39 121.656 364.165 122.695 361.655C123.715 359.145 124.225 356.547 124.225 353.861ZM143.989 316.244V383.301C143.989 388.713 142.96 393.792 140.901 398.537C138.842 403.282 136.029 407.419 132.46 410.948C128.891 414.497 124.725 417.301 119.96 419.36C115.195 421.419 110.107 422.448 104.696 422.448L94.8723 422.301V402.713L104.549 402.831C107.607 402.831 110.215 402.438 112.372 401.654C114.529 400.87 116.352 399.791 117.843 398.419C119.333 397.066 120.519 395.497 121.401 393.713C122.284 391.948 122.989 390.086 123.519 388.125C122.754 389.36 121.646 390.38 120.195 391.184C118.764 391.968 117.176 392.615 115.431 393.125C113.686 393.615 111.872 393.958 109.99 394.154C108.088 394.35 106.323 394.448 104.696 394.448C99.284 394.448 94.1958 393.517 89.4312 391.654C84.6665 389.772 80.4999 387.096 76.9313 383.625C73.3824 380.154 70.5785 375.909 68.5197 370.89C66.4609 365.87 65.4315 360.194 65.4315 353.861C65.4315 348.076 66.4609 342.694 68.5197 337.714C70.5785 332.734 73.3824 328.43 76.9313 324.802C80.4999 321.155 84.6665 318.302 89.4312 316.244C94.1958 314.185 99.284 313.155 104.696 313.155C107.186 313.155 109.656 313.469 112.107 314.097C114.539 314.724 116.901 315.587 119.195 316.685C121.49 317.783 123.686 319.077 125.784 320.567C127.862 322.038 129.813 323.636 131.636 325.361L139.225 316.244H143.989ZM178.518 349.067V393.007H158.901V285.509H178.518V319.479C180.851 317.714 183.263 316.459 185.753 315.714C188.243 314.969 190.783 314.597 193.371 314.597C198.116 314.597 202.567 315.499 206.724 317.302C210.88 319.087 214.508 321.547 217.606 324.685C220.684 327.822 223.125 331.489 224.929 335.685C226.733 339.861 227.635 344.322 227.635 349.067V393.007H207.871V349.067H208.018C208.018 347.047 207.635 345.145 206.871 343.361C206.106 341.557 205.057 339.988 203.724 338.655C202.371 337.302 200.812 336.243 199.047 335.479C197.283 334.714 195.39 334.332 193.371 334.332C191.312 334.332 189.371 334.714 187.547 335.479C185.724 336.243 184.145 337.302 182.812 338.655C181.479 339.988 180.43 341.557 179.665 343.361C178.9 345.145 178.518 347.047 178.518 349.067ZM293.958 393.007H279.105C274.36 393.007 269.909 392.105 265.752 390.301C261.576 388.517 257.919 386.056 254.782 382.919C251.645 379.782 249.184 376.135 247.399 371.978C245.596 367.802 244.694 363.351 244.694 358.625V335.773H235.164V316.244H244.694V285.509H264.223V316.244H293.958V335.773H264.223V358.625C264.223 360.684 264.605 362.606 265.37 364.39C266.154 366.194 267.213 367.762 268.546 369.096C269.88 370.429 271.458 371.498 273.281 372.302C275.105 373.086 277.046 373.478 279.105 373.478H293.958V393.007ZM381.927 353.861C381.927 359.9 380.898 365.41 378.839 370.39C376.78 375.37 373.976 379.645 370.427 383.213C366.878 386.782 362.721 389.547 357.957 391.507C353.192 393.468 348.084 394.448 342.633 394.448C337.222 394.448 332.134 393.439 327.369 391.419C322.604 389.419 318.448 386.625 314.899 383.037C311.33 379.449 308.516 375.174 306.457 370.213C304.399 365.253 303.369 359.802 303.369 353.861V285.509H323.045V321.42C324.085 320.087 325.359 318.891 326.869 317.832C328.379 316.773 330.006 315.91 331.751 315.244C333.496 314.577 335.31 314.057 337.192 313.685C339.055 313.332 340.869 313.155 342.633 313.155C348.084 313.155 353.192 314.175 357.957 316.214C362.721 318.253 366.878 321.087 370.427 324.714C373.976 328.361 376.78 332.655 378.839 337.596C380.898 342.557 381.927 347.978 381.927 353.861ZM362.163 353.861C362.163 350.9 361.653 348.135 360.633 345.567C359.594 343.018 358.192 340.812 356.427 338.949C354.663 337.067 352.594 335.606 350.222 334.567C347.849 333.508 345.32 332.979 342.633 332.979C339.947 332.979 337.428 333.567 335.075 334.743C332.702 335.92 330.624 337.469 328.84 339.39C327.075 341.332 325.692 343.567 324.692 346.096C323.693 348.606 323.193 351.194 323.193 353.861C323.193 356.841 323.693 359.596 324.692 362.125C325.692 364.674 327.075 366.88 328.84 368.743C330.624 370.606 332.702 372.076 335.075 373.155C337.428 374.233 339.947 374.772 342.633 374.772C345.32 374.772 347.849 374.233 350.222 373.155C352.594 372.076 354.663 370.606 356.427 368.743C358.192 366.88 359.594 364.674 360.633 362.125C361.653 359.596 362.163 356.841 362.163 353.861ZM467.073 353.861C467.073 359.606 466.043 364.959 463.985 369.919C461.926 374.88 459.122 379.164 455.573 382.772C452.044 386.38 447.897 389.233 443.132 391.331C438.367 393.409 433.25 394.448 427.779 394.448C422.387 394.448 417.309 393.409 412.544 391.331C407.78 389.233 403.613 386.38 400.044 382.772C396.476 379.164 393.662 374.88 391.603 369.919C389.545 364.959 388.515 359.606 388.515 353.861C388.515 348.037 389.545 342.635 391.603 337.655C393.662 332.675 396.476 328.371 400.044 324.744C403.613 321.136 407.78 318.302 412.544 316.244C417.309 314.185 422.387 313.155 427.779 313.155C433.25 313.155 438.367 314.126 443.132 316.067C447.897 318.008 452.044 320.763 455.573 324.332C459.122 327.9 461.926 332.185 463.985 337.185C466.043 342.184 467.073 347.743 467.073 353.861ZM447.308 353.861C447.308 350.704 446.799 347.851 445.779 345.302C444.759 342.733 443.357 340.528 441.573 338.684C439.809 336.841 437.74 335.43 435.367 334.449C432.995 333.469 430.465 332.979 427.779 332.979C425.113 332.979 422.593 333.469 420.221 334.449C417.848 335.43 415.789 336.841 414.044 338.684C412.299 340.528 410.927 342.733 409.927 345.302C408.907 347.851 408.397 350.704 408.397 353.861C408.397 356.841 408.907 359.596 409.927 362.125C410.927 364.674 412.299 366.88 414.044 368.743C415.789 370.606 417.848 372.076 420.221 373.155C422.593 374.233 425.113 374.772 427.779 374.772C430.465 374.772 432.995 374.272 435.367 373.272C437.74 372.253 439.809 370.841 441.573 369.037C443.357 367.213 444.759 365.008 445.779 362.419C446.799 359.831 447.308 356.978 447.308 353.861ZM552.366 316.244V393.007H547.63L540.013 382.449C538.15 384.135 536.18 385.703 534.101 387.154C532.003 388.605 529.807 389.87 527.513 390.948C525.219 392.027 522.866 392.88 520.454 393.507C518.043 394.135 515.592 394.448 513.102 394.448C507.69 394.448 502.602 393.537 497.837 391.713C493.072 389.89 488.906 387.243 485.337 383.772C481.769 380.302 478.955 376.057 476.896 371.037C474.837 366.017 473.808 360.292 473.808 353.861C473.808 347.88 474.837 342.39 476.896 337.39C478.955 332.39 481.769 328.096 485.337 324.508C488.906 320.92 493.072 318.126 497.837 316.126C502.602 314.146 507.69 313.155 513.102 313.155C515.592 313.155 518.052 313.469 520.484 314.097C522.935 314.724 525.307 315.587 527.601 316.685C529.895 317.783 532.082 319.077 534.16 320.567C536.239 322.038 538.189 323.636 540.013 325.361L547.63 316.244H552.366ZM532.631 353.861C532.631 351.194 532.111 348.606 531.072 346.096C530.052 343.567 528.65 341.332 526.866 339.39C525.101 337.469 523.033 335.92 520.66 334.743C518.288 333.567 515.768 332.979 513.102 332.979C510.415 332.979 507.886 333.43 505.513 334.332C503.141 335.253 501.082 336.596 499.337 338.361C497.592 340.126 496.219 342.312 495.219 344.92C494.2 347.547 493.69 350.527 493.69 353.861C493.69 357.214 494.2 360.194 495.219 362.802C496.219 365.41 497.592 367.606 499.337 369.39C501.082 371.155 503.141 372.488 505.513 373.39C507.886 374.311 510.415 374.772 513.102 374.772C515.768 374.772 518.288 374.184 520.66 373.008C523.033 371.831 525.101 370.272 526.866 368.331C528.65 366.39 530.052 364.165 531.072 361.655C532.111 359.145 532.631 356.547 532.631 353.861ZM586.895 350.655V393.007H567.307V316.097H572.042L578.483 325.214C581.659 322.351 585.257 320.136 589.277 318.567C593.297 317.018 597.453 316.244 601.747 316.244H619.071V335.773H601.747C599.689 335.773 597.757 336.155 595.953 336.92C594.13 337.684 592.551 338.743 591.218 340.096C589.865 341.43 588.806 343.008 588.042 344.831C587.277 346.655 586.895 348.596 586.895 350.655ZM701.07 285.509V393.007H696.334L688.717 382.449C686.854 384.135 684.874 385.703 682.776 387.154C680.697 388.605 678.511 389.87 676.217 390.948C673.923 392.027 671.56 392.88 669.129 393.507C666.717 394.135 664.266 394.448 661.776 394.448C656.364 394.448 651.276 393.429 646.511 391.39C641.747 389.35 637.59 386.527 634.041 382.919C630.472 379.311 627.659 375.027 625.6 370.066C623.541 365.106 622.512 359.704 622.512 353.861C622.512 348.076 623.541 342.694 625.6 337.714C627.659 332.734 630.472 328.43 634.041 324.802C637.59 321.155 641.747 318.302 646.511 316.244C651.276 314.185 656.364 313.155 661.776 313.155C663.501 313.155 665.286 313.302 667.129 313.597C668.972 313.871 670.766 314.332 672.511 314.979C674.256 315.626 675.893 316.479 677.423 317.538C678.972 318.597 680.266 319.891 681.305 321.42V285.509H701.07ZM681.305 353.861C681.305 351.194 680.795 348.606 679.776 346.096C678.737 343.567 677.335 341.332 675.57 339.39C673.805 337.469 671.737 335.92 669.364 334.743C666.992 333.567 664.462 332.979 661.776 332.979C659.09 332.979 656.57 333.459 654.217 334.42C651.845 335.381 649.786 336.753 648.041 338.537C646.296 340.341 644.913 342.537 643.894 345.126C642.894 347.694 642.394 350.606 642.394 353.861C642.394 356.684 642.894 359.37 643.894 361.919C644.913 364.449 646.296 366.674 648.041 368.596C649.786 370.517 651.845 372.027 654.217 373.125C656.57 374.223 659.09 374.772 661.776 374.772C664.462 374.772 666.992 374.184 669.364 373.008C671.737 371.831 673.805 370.272 675.57 368.331C677.335 366.39 678.737 364.165 679.776 361.655C680.795 359.145 681.305 356.547 681.305 353.861Z" fill="white"/>
</g>
</g>
</g>
</g>
</g>
</g>
</g>
<path d="M0.102051 264.919V0.668457H701.134V264.919H688.48V13.3221H12.7557V264.919H0.102051ZM0.102051 439.656V703.906H701.134V439.656H688.48V691.252H12.7557V439.656H0.102051Z" fill="white"/>
<defs>
<clipPath id="clip0_147_19">
<rect width="701.033" height="140.322" fill="white" transform="translate(0.102051 282.126)"/>
</clipPath>
<clipPath id="clip1_147_19">
<rect width="701.033" height="140.322" fill="white" transform="translate(0.102051 282.126)"/>
</clipPath>
<clipPath id="clip2_147_19">
<rect width="701.033" height="140.322" fill="white" transform="translate(0.102051 282.126)"/>
</clipPath>
<clipPath id="clip3_147_19">
<rect width="701.033" height="140.322" fill="white" transform="translate(0.102051 282.126)"/>
</clipPath>
<clipPath id="clip4_147_19">
<rect width="701.033" height="140.322" fill="white" transform="translate(0.102051 282.126)"/>
</clipPath>
<clipPath id="clip5_147_19">
<rect width="701.033" height="140.322" fill="white" transform="translate(0.102051 282.126)"/>
</clipPath>
<clipPath id="clip6_147_19">
<rect width="701.033" height="140.322" fill="white" transform="translate(0.102051 282.126)"/>
</clipPath>
</defs>
</svg>
